<?xml version="1.0" encoding="UTF-8"?>
<svg id="Layer_1" data-name="Layer 1" xmlns="http://www.w3.org/2000/svg" viewBox="0 0 24 24">
  <defs>
    <style>
      .cls-1 {
        fill: #fd5c35;
      }

      .cls-1, .cls-2, .cls-3 {
        stroke-width: 0px;
      }

      .cls-3 {
        fill: none;
      }
    </style>
  </defs>
  <path class="cls-2" d="m12.1,21c-.55,0-1-.45-1-1v-3c0-.55.45-1,1-1s1,.45,1,1v3c0,.55-.45,1-1,1Z"/>
  <g>
    <path class="cls-1" d="m7.1,9v3c0,2.76,2.24,5,5,5h0c2.76,0,5-2.24,5-5v-3s-10,0-10,0Z"/>
    <path class="cls-1" d="m12.1,18c-3.31,0-6-2.69-6-6v-4h12v4c0,3.31-2.69,6-6,6Zm-4-8v2c0,2.21,1.79,4,4,4s4-1.79,4-4v-2h-8Z"/>
  </g>
  <rect class="cls-3" y="0" width="24" height="24"/>
  <path class="cls-2" d="m15.1,10c-.55,0-1-.45-1-1V3.99c0-.55.45-1,1-1s1,.45,1,1v5.01c0,.55-.45,1-1,1Z"/>
  <path class="cls-2" d="m9.1,10c-.55,0-1-.45-1-1V3.99c0-.55.45-1,1-1s1,.45,1,1v5.01c0,.55-.45,1-1,1Z"/>
  <path class="cls-1" d="m19.1,10H5.1c-.55,0-1-.45-1-1s.45-1,1-1h14c.55,0,1,.45,1,1s-.45,1-1,1Z"/>
</svg>