<?xml version="1.0" encoding="UTF-8"?>
<svg id="Layer_1" data-name="Layer 1" xmlns="http://www.w3.org/2000/svg" viewBox="0 0 24 24">
  <defs>
    <style>
      .cls-1 {
        fill: #fd5c35;
      }

      .cls-1, .cls-2, .cls-3 {
        stroke-width: 0px;
      }

      .cls-3 {
        fill: none;
      }
    </style>
  </defs>
  <rect class="cls-3" x="0" width="24" height="24"/>
  <path class="cls-1" d="m4,20c-.55,0-1-.45-1-1v-2c0-.55.45-1,1-1s1,.45,1,1v2c0,.55-.45,1-1,1Z"/>
  <path class="cls-1" d="m20,20c-.55,0-1-.45-1-1v-2c0-.55.45-1,1-1s1,.45,1,1v2c0,.55-.45,1-1,1Z"/>
  <g>
    <path class="cls-1" d="m16.5,13v-6c0-1.1-.9-2-2-2h-5c-1.1,0-2,.9-2,2v6"/>
    <path class="cls-1" d="m17.5,13h-2v-6c0-.55-.45-1-1-1h-5c-.55,0-1,.45-1,1v6h-2v-6c0-1.65,1.35-3,3-3h5c1.65,0,3,1.35,3,3v6Z"/>
  </g>
  <path class="cls-2" d="m16.88,18H7.12l-.75-6h11.27l-.75,6Zm-8-2h6.23l.25-2h-6.73l.25,2Z"/>
  <path class="cls-2" d="m9.13,18H3.12l-.83-6.65c-.11-.85.16-1.7.72-2.34s1.38-1.01,2.24-1.01c1.5,0,2.77,1.12,2.96,2.61l.92,7.39Zm-4.25-2h1.98l-.64-5.14c-.06-.49-.48-.86-.98-.86-.29,0-.55.12-.74.33s-.27.49-.24.77l.61,4.89Z"/>
  <path class="cls-2" d="m20.88,18h-6.02l.92-7.39c.19-1.49,1.46-2.61,2.96-2.61.86,0,1.67.37,2.24,1.01s.83,1.5.72,2.34l-.83,6.65Zm-3.75-2h1.98l.61-4.89c.04-.28-.05-.56-.24-.77s-.45-.33-.74-.33c-.5,0-.92.37-.98.86l-.64,5.14Z"/>
</svg>