<?xml version="1.0" encoding="UTF-8"?>
<svg id="Layer_1" data-name="Layer 1" xmlns="http://www.w3.org/2000/svg" viewBox="0 0 24 24.05">
  <defs>
    <style>
      .cls-1 {
        fill: #fd5c35;
      }

      .cls-1, .cls-2, .cls-3 {
        stroke-width: 0px;
      }

      .cls-3 {
        fill: none;
      }
    </style>
  </defs>
  <g>
    <path class="cls-1" d="m5.36,13.92h3.8v4.79c0,1.02-.83,1.86-1.86,1.86h-.08c-1.02,0-1.86-.83-1.86-1.86v-4.79h0Z"/>
    <path class="cls-1" d="m7.3,21.57h-.08c-1.58,0-2.86-1.28-2.86-2.86v-5.79h5.8v5.79c0,1.58-1.28,2.86-2.86,2.86Zm-.94-6.64v3.79c0,.47.38.86.86.86h.08c.47,0,.86-.38.86-.86v-3.79h-1.8Z"/>
  </g>
  <g>
    <path class="cls-1" d="m16.55,11.08h-1.52l-1.11,6.94c-.21,1.33.68,2.55,1.87,2.55h0c1.18,0,2.08-1.22,1.87-2.55l-1.11-6.94Z"/>
    <path class="cls-1" d="m15.79,21.57c-.8,0-1.58-.37-2.12-1-.62-.73-.89-1.71-.73-2.7l1.24-7.78h3.22l1.24,7.78c.16.99-.11,1.97-.73,2.7-.54.64-1.32,1-2.12,1Zm0-8.89l-.88,5.5c-.06.4.04.81.28,1.09.12.14.32.3.6.3s.48-.17.6-.3c.24-.28.34-.69.28-1.09l-.88-5.5Z"/>
  </g>
  <path class="cls-2" d="m7.26,14.92c-.55,0-1-.45-1-1V4.43c0-.55.45-1,1-1s1,.45,1,1v9.49c0,.55-.45,1-1,1Z"/>
  <polygon class="cls-2" points="7.26 7.75 5.31 5.8 5.31 3.43 9.2 3.43 9.2 5.8 7.26 7.75"/>
  <path class="cls-2" d="m15.79,12.08c-2.64,0-4.79-2.08-4.79-4.63,0-1.58,1.64-3.36,1.97-3.7l.29-.3h1.62v2.47l.9.43.9-.43v-2.47h1.63l.29.31c.33.34,1.97,2.12,1.97,3.7,0,2.55-2.15,4.63-4.79,4.63Zm-2.76-4.85c-.02.08-.03.15-.03.21,0,1.45,1.25,2.63,2.79,2.63s2.79-1.18,2.79-2.63c0-.06-.01-.14-.03-.21l-2.76,1.34-2.76-1.33Z"/>
  <path class="cls-2" d="m10.1,14.92h-5.69c-.55,0-1-.45-1-1s.45-1,1-1h5.69c.55,0,1,.45,1,1s-.45,1-1,1Z"/>
  <rect class="cls-3" width="24" height="24.05"/>
</svg>