<?xml version="1.0" encoding="UTF-8"?>
<svg id="Layer_1" data-name="Layer 1" xmlns="http://www.w3.org/2000/svg" viewBox="0 0 24 24">
  <defs>
    <style>
      .cls-1 {
        fill: #fd5c35;
      }

      .cls-1, .cls-2, .cls-3 {
        stroke-width: 0px;
      }

      .cls-3 {
        fill: none;
      }
    </style>
  </defs>
  <path class="cls-1" d="m17,22c-.55,0-1-.45-1-1v-8c0-.55.45-1,1-1s1,.45,1,1v8c0,.55-.45,1-1,1Z"/>
  <path class="cls-1" d="m17,18h-2c-.55,0-1-.45-1-1s.45-1,1-1h2c.55,0,1,.45,1,1s-.45,1-1,1Z"/>
  <rect class="cls-3" x="0" width="24" height="24"/>
  <g>
    <path class="cls-1" d="m16,5c0-1.1-.9-2-2-2H5c-1.1,0-2,.9-2,2v12c0,1.1.9,2,2,2h5v-6h6V5Z"/>
    <path class="cls-1" d="m11,20h-6c-1.65,0-3-1.35-3-3V5c0-1.65,1.35-3,3-3h9c1.65,0,3,1.35,3,3v9h-6v6ZM5,4c-.55,0-1,.45-1,1v12c0,.55.45,1,1,1h4v-6h6v-7c0-.55-.45-1-1-1H5Z"/>
  </g>
  <path class="cls-2" d="m6,6h-1c-.55,0-1-.45-1-1s.45-1,1-1h1c.55,0,1,.45,1,1s-.45,1-1,1Z"/>
  <path class="cls-2" d="m9.5,17c-2.48,0-4.5-2.02-4.5-4.5s2.02-4.5,4.5-4.5,4.5,2.02,4.5,4.5c0,.55-.45,1-1,1s-1-.45-1-1c0-1.38-1.12-2.5-2.5-2.5s-2.5,1.12-2.5,2.5,1.12,2.5,2.5,2.5c.55,0,1,.45,1,1s-.45,1-1,1Z"/>
  <path class="cls-2" d="m22,22h-13v-7c0-1.65,1.35-3,3-3h7c1.65,0,3,1.35,3,3v7Zm-11-2h9v-5c0-.55-.45-1-1-1h-7c-.55,0-1,.45-1,1v5Z"/>
  <path class="cls-2" d="m14,6h-5c-.55,0-1-.45-1-1s.45-1,1-1h5c.55,0,1,.45,1,1s-.45,1-1,1Z"/>
</svg>